<mxfile host="app.diagrams.net" agent="Mozilla/5.0 (Linux; Android 10; K) AppleWebKit/537.36 (KHTML, like Gecko) Chrome/134.0.0.0 Mobile Safari/537.36" version="26.1.1">
  <diagram id="R2lEEEUBdFMjLlhIrx00" name="Diagrama de Actividades">
    <mxGraphModel dx="343" dy="680" grid="0" gridSize="29" guides="1" tooltips="1" connect="1" arrows="1" fold="1" page="0" pageScale="1" pageWidth="850" pageHeight="1100" background="#1F1F1F" math="0" shadow="1" extFonts="Permanent Marker^https://fonts.googleapis.com/css?family=Permanent+Marker">
      <root>
        <mxCell id="0" />
        <mxCell id="1" parent="0" />
        <mxCell id="v7FEq4-VS3XR-d21zDfw-12" value="Creados Por mi" style="text;strokeColor=none;fillColor=none;html=1;align=center;verticalAlign=middle;whiteSpace=wrap;rounded=0;fontSize=16;" parent="1" vertex="1">
          <mxGeometry x="24" y="23" width="129" height="30" as="geometry" />
        </mxCell>
        <mxCell id="v7FEq4-VS3XR-d21zDfw-29" style="edgeStyle=none;curved=1;rounded=0;orthogonalLoop=1;jettySize=auto;html=1;exitX=0.5;exitY=1;exitDx=0;exitDy=0;entryX=0.5;entryY=0;entryDx=0;entryDy=0;fontSize=12;startSize=8;endSize=8;" parent="1" source="v7FEq4-VS3XR-d21zDfw-15" target="v7FEq4-VS3XR-d21zDfw-21" edge="1">
          <mxGeometry relative="1" as="geometry" />
        </mxCell>
        <mxCell id="v7FEq4-VS3XR-d21zDfw-15" value="" style="ellipse;whiteSpace=wrap;html=1;fillColor=default;rounded=0;" parent="1" vertex="1">
          <mxGeometry x="89" y="87" width="10" height="10" as="geometry" />
        </mxCell>
        <mxCell id="v7FEq4-VS3XR-d21zDfw-31" style="edgeStyle=none;curved=1;rounded=0;orthogonalLoop=1;jettySize=auto;html=1;entryX=0.5;entryY=0;entryDx=0;entryDy=0;fontSize=12;startSize=8;endSize=8;" parent="1" source="v7FEq4-VS3XR-d21zDfw-21" target="v7FEq4-VS3XR-d21zDfw-30" edge="1">
          <mxGeometry relative="1" as="geometry" />
        </mxCell>
        <mxCell id="v7FEq4-VS3XR-d21zDfw-21" value="Usuario" style="rounded=0;whiteSpace=wrap;html=1;fontSize=7;align=center;verticalAlign=middle;" parent="1" vertex="1">
          <mxGeometry x="64.88" y="119" width="58.25" height="21" as="geometry" />
        </mxCell>
        <mxCell id="v7FEq4-VS3XR-d21zDfw-22" value="Login" style="text;strokeColor=none;fillColor=none;html=1;align=center;verticalAlign=middle;whiteSpace=wrap;rounded=0;fontSize=7;" parent="1" vertex="1">
          <mxGeometry x="81" y="71" width="26" height="16" as="geometry" />
        </mxCell>
        <mxCell id="v7FEq4-VS3XR-d21zDfw-30" value="Contrasena" style="rounded=0;whiteSpace=wrap;html=1;fontSize=7;align=center;verticalAlign=middle;" parent="1" vertex="1">
          <mxGeometry x="64.88" y="163" width="58.25" height="21" as="geometry" />
        </mxCell>
        <mxCell id="v7FEq4-VS3XR-d21zDfw-35" style="edgeStyle=orthogonalEdgeStyle;rounded=0;orthogonalLoop=1;jettySize=auto;html=1;entryX=0;entryY=0.5;entryDx=0;entryDy=0;fontSize=12;startSize=8;endSize=8;" parent="1" source="v7FEq4-VS3XR-d21zDfw-32" target="v7FEq4-VS3XR-d21zDfw-21" edge="1">
          <mxGeometry relative="1" as="geometry">
            <Array as="points">
              <mxPoint x="45" y="217" />
              <mxPoint x="45" y="130" />
            </Array>
          </mxGeometry>
        </mxCell>
        <mxCell id="v7FEq4-VS3XR-d21zDfw-40" style="edgeStyle=none;curved=1;rounded=0;orthogonalLoop=1;jettySize=auto;html=1;entryX=0.5;entryY=0;entryDx=0;entryDy=0;fontSize=12;startSize=8;endSize=8;" parent="1" source="v7FEq4-VS3XR-d21zDfw-32" target="v7FEq4-VS3XR-d21zDfw-39" edge="1">
          <mxGeometry relative="1" as="geometry" />
        </mxCell>
        <mxCell id="v7FEq4-VS3XR-d21zDfw-32" value="" style="rhombus;whiteSpace=wrap;html=1;rounded=0;" parent="1" vertex="1">
          <mxGeometry x="81.88" y="206" width="26.12" height="21" as="geometry" />
        </mxCell>
        <mxCell id="v7FEq4-VS3XR-d21zDfw-33" style="edgeStyle=none;curved=1;rounded=0;orthogonalLoop=1;jettySize=auto;html=1;fontSize=12;startSize=8;endSize=8;entryX=0.5;entryY=-0.028;entryDx=0;entryDy=0;entryPerimeter=0;" parent="1" target="v7FEq4-VS3XR-d21zDfw-32" edge="1">
          <mxGeometry relative="1" as="geometry">
            <mxPoint x="94.80098759048603" y="184" as="sourcePoint" />
            <mxPoint x="96" y="204" as="targetPoint" />
          </mxGeometry>
        </mxCell>
        <mxCell id="v7FEq4-VS3XR-d21zDfw-38" value="[Usuario/Contrasena Invalida]" style="text;strokeColor=none;fillColor=none;html=1;align=center;verticalAlign=middle;whiteSpace=wrap;rounded=0;fontSize=4;" parent="1" vertex="1">
          <mxGeometry x="58" y="201" width="14" height="10" as="geometry" />
        </mxCell>
        <mxCell id="v7FEq4-VS3XR-d21zDfw-41" style="edgeStyle=none;curved=1;rounded=0;orthogonalLoop=1;jettySize=auto;html=1;entryX=0.5;entryY=0;entryDx=0;entryDy=0;fontSize=12;startSize=8;endSize=8;" parent="1" source="v7FEq4-VS3XR-d21zDfw-39" edge="1">
          <mxGeometry relative="1" as="geometry">
            <mxPoint x="94.94000000000017" y="300" as="targetPoint" />
          </mxGeometry>
        </mxCell>
        <mxCell id="v7FEq4-VS3XR-d21zDfw-39" value="Iniciar Sesion" style="rounded=0;whiteSpace=wrap;html=1;fontSize=7;align=center;verticalAlign=middle;" parent="1" vertex="1">
          <mxGeometry x="65.82" y="251" width="58.25" height="21" as="geometry" />
        </mxCell>
        <mxCell id="v7FEq4-VS3XR-d21zDfw-42" value="Abri Vscode" style="rounded=0;whiteSpace=wrap;html=1;fontSize=7;align=center;verticalAlign=middle;" parent="1" vertex="1">
          <mxGeometry x="217.06" y="130" width="58.25" height="21" as="geometry" />
        </mxCell>
        <mxCell id="v7FEq4-VS3XR-d21zDfw-44" value="VsCode" style="text;strokeColor=none;fillColor=none;html=1;align=center;verticalAlign=middle;whiteSpace=wrap;rounded=0;fontSize=7;rotation=0;" parent="1" vertex="1">
          <mxGeometry x="239" y="64" width="26" height="16" as="geometry" />
        </mxCell>
        <mxCell id="v7FEq4-VS3XR-d21zDfw-47" style="edgeStyle=none;curved=1;rounded=0;orthogonalLoop=1;jettySize=auto;html=1;entryX=0.5;entryY=0;entryDx=0;entryDy=0;fontSize=12;startSize=8;endSize=8;" parent="1" source="v7FEq4-VS3XR-d21zDfw-46" target="v7FEq4-VS3XR-d21zDfw-42" edge="1">
          <mxGeometry relative="1" as="geometry" />
        </mxCell>
        <mxCell id="v7FEq4-VS3XR-d21zDfw-46" value="" style="ellipse;whiteSpace=wrap;html=1;fillColor=default;rounded=0;" parent="1" vertex="1">
          <mxGeometry x="241.19" y="100" width="10" height="10" as="geometry" />
        </mxCell>
        <mxCell id="v7FEq4-VS3XR-d21zDfw-50" style="edgeStyle=none;curved=1;rounded=0;orthogonalLoop=1;jettySize=auto;html=1;fontSize=12;startSize=8;endSize=8;" parent="1" source="v7FEq4-VS3XR-d21zDfw-42" edge="1">
          <mxGeometry relative="1" as="geometry">
            <mxPoint x="245" y="174" as="targetPoint" />
          </mxGeometry>
        </mxCell>
        <mxCell id="v7FEq4-VS3XR-d21zDfw-64" value="[Usuario/Contrasena valida]" style="text;strokeColor=none;fillColor=none;html=1;align=center;verticalAlign=middle;whiteSpace=wrap;rounded=0;fontSize=4;" parent="1" vertex="1">
          <mxGeometry x="108" y="227" width="14" height="10" as="geometry" />
        </mxCell>
        <mxCell id="v7FEq4-VS3XR-d21zDfw-70" style="edgeStyle=none;curved=1;rounded=0;orthogonalLoop=1;jettySize=auto;html=1;entryX=0.5;entryY=0;entryDx=0;entryDy=0;fontSize=12;startSize=8;endSize=8;" parent="1" source="v7FEq4-VS3XR-d21zDfw-67" target="v7FEq4-VS3XR-d21zDfw-69" edge="1">
          <mxGeometry relative="1" as="geometry" />
        </mxCell>
        <mxCell id="v7FEq4-VS3XR-d21zDfw-67" value="Crear Carpeta" style="rounded=0;whiteSpace=wrap;html=1;fontSize=7;align=center;verticalAlign=middle;" parent="1" vertex="1">
          <mxGeometry x="278" y="237" width="58.25" height="21" as="geometry" />
        </mxCell>
        <mxCell id="v7FEq4-VS3XR-d21zDfw-69" value="Crear Archivo" style="rounded=0;whiteSpace=wrap;html=1;fontSize=7;align=center;verticalAlign=middle;" parent="1" vertex="1">
          <mxGeometry x="278" y="278" width="58.25" height="21" as="geometry" />
        </mxCell>
        <mxCell id="v7FEq4-VS3XR-d21zDfw-71" value="Crear Archivo" style="rounded=0;whiteSpace=wrap;html=1;fontSize=7;align=center;verticalAlign=middle;" parent="1" vertex="1">
          <mxGeometry x="200" y="235.5" width="58.25" height="21" as="geometry" />
        </mxCell>
        <mxCell id="v7FEq4-VS3XR-d21zDfw-75" style="edgeStyle=none;curved=1;rounded=0;orthogonalLoop=1;jettySize=auto;html=1;entryX=0.5;entryY=0;entryDx=0;entryDy=0;fontSize=12;startSize=8;endSize=8;" parent="1" source="v7FEq4-VS3XR-d21zDfw-74" edge="1">
          <mxGeometry relative="1" as="geometry">
            <mxPoint x="246.19000000000005" y="211" as="targetPoint" />
          </mxGeometry>
        </mxCell>
        <mxCell id="v7FEq4-VS3XR-d21zDfw-74" value="Crear Carpeta" style="rounded=0;whiteSpace=wrap;html=1;fontSize=7;align=center;verticalAlign=middle;gradientColor=none;glass=0;shadow=0;fillColor=default;" parent="1" vertex="1">
          <mxGeometry x="217.07" y="175" width="58.25" height="21" as="geometry" />
        </mxCell>
        <mxCell id="v7FEq4-VS3XR-d21zDfw-81" style="edgeStyle=none;curved=1;rounded=0;orthogonalLoop=1;jettySize=auto;html=1;fontSize=12;startSize=8;endSize=8;entryX=0.499;entryY=0;entryDx=0;entryDy=0;entryPerimeter=0;exitX=0.552;exitY=0.673;exitDx=0;exitDy=0;exitPerimeter=0;" parent="1" source="v7FEq4-VS3XR-d21zDfw-98" target="v7FEq4-VS3XR-d21zDfw-80" edge="1">
          <mxGeometry relative="1" as="geometry">
            <mxPoint x="281" y="379" as="targetPoint" />
            <mxPoint x="281.0422740914913" y="359.9857486953031" as="sourcePoint" />
          </mxGeometry>
        </mxCell>
        <mxCell id="v7FEq4-VS3XR-d21zDfw-85" style="edgeStyle=none;curved=1;rounded=0;orthogonalLoop=1;jettySize=auto;html=1;entryX=0.5;entryY=0;entryDx=0;entryDy=0;fontSize=12;startSize=8;endSize=8;" parent="1" source="v7FEq4-VS3XR-d21zDfw-80" edge="1">
          <mxGeometry relative="1" as="geometry">
            <mxPoint x="281.06999999999994" y="426" as="targetPoint" />
          </mxGeometry>
        </mxCell>
        <mxCell id="v7FEq4-VS3XR-d21zDfw-80" value="Escribir Codigo" style="rounded=0;whiteSpace=wrap;html=1;fontSize=7;align=center;verticalAlign=middle;" parent="1" vertex="1">
          <mxGeometry x="251.94" y="381" width="58.25" height="21" as="geometry" />
        </mxCell>
        <mxCell id="v7FEq4-VS3XR-d21zDfw-89" value="" style="group;rounded=0;" parent="1" vertex="1" connectable="0">
          <mxGeometry x="88.44" y="300" width="13" height="13" as="geometry" />
        </mxCell>
        <mxCell id="v7FEq4-VS3XR-d21zDfw-90" value="" style="ellipse;whiteSpace=wrap;html=1;fillColor=default;rounded=0;" parent="v7FEq4-VS3XR-d21zDfw-89" vertex="1">
          <mxGeometry x="1.793103448275862" y="1.6545454545454543" width="9.413793103448278" height="9.454545454545453" as="geometry" />
        </mxCell>
        <mxCell id="v7FEq4-VS3XR-d21zDfw-91" value="" style="ellipse;whiteSpace=wrap;html=1;fillColor=none;rounded=0;" parent="v7FEq4-VS3XR-d21zDfw-89" vertex="1">
          <mxGeometry width="13" height="13" as="geometry" />
        </mxCell>
        <mxCell id="v7FEq4-VS3XR-d21zDfw-92" value="" style="group;rounded=0;" parent="1" vertex="1" connectable="0">
          <mxGeometry x="275" y="426" width="13" height="13" as="geometry" />
        </mxCell>
        <mxCell id="v7FEq4-VS3XR-d21zDfw-93" value="" style="ellipse;whiteSpace=wrap;html=1;fillColor=default;rounded=0;" parent="v7FEq4-VS3XR-d21zDfw-92" vertex="1">
          <mxGeometry x="1.793103448275862" y="1.6545454545454543" width="9.413793103448278" height="9.454545454545453" as="geometry" />
        </mxCell>
        <mxCell id="v7FEq4-VS3XR-d21zDfw-94" value="" style="ellipse;whiteSpace=wrap;html=1;fillColor=none;rounded=0;" parent="v7FEq4-VS3XR-d21zDfw-92" vertex="1">
          <mxGeometry width="13" height="13" as="geometry" />
        </mxCell>
        <mxCell id="v7FEq4-VS3XR-d21zDfw-95" value="" style="line;strokeWidth=2;html=1;rounded=0;" parent="1" vertex="1">
          <mxGeometry x="194.25" y="208" width="160" height="10" as="geometry" />
        </mxCell>
        <mxCell id="v7FEq4-VS3XR-d21zDfw-96" style="edgeStyle=none;curved=1;rounded=0;orthogonalLoop=1;jettySize=auto;html=1;entryX=0.514;entryY=0.071;entryDx=0;entryDy=0;fontSize=12;startSize=8;endSize=8;exitX=0.223;exitY=0.509;exitDx=0;exitDy=0;exitPerimeter=0;entryPerimeter=0;" parent="1" source="v7FEq4-VS3XR-d21zDfw-95" target="v7FEq4-VS3XR-d21zDfw-71" edge="1">
          <mxGeometry relative="1" as="geometry">
            <mxPoint x="228.94" y="215.5" as="sourcePoint" />
            <mxPoint x="228.94" y="235.5" as="targetPoint" />
          </mxGeometry>
        </mxCell>
        <mxCell id="v7FEq4-VS3XR-d21zDfw-97" style="edgeStyle=none;curved=1;rounded=0;orthogonalLoop=1;jettySize=auto;html=1;entryX=0.552;entryY=-0.039;entryDx=0;entryDy=0;fontSize=12;startSize=8;endSize=8;exitX=0.718;exitY=0.655;exitDx=0;exitDy=0;exitPerimeter=0;entryPerimeter=0;" parent="1" source="v7FEq4-VS3XR-d21zDfw-95" target="v7FEq4-VS3XR-d21zDfw-67" edge="1">
          <mxGeometry relative="1" as="geometry">
            <mxPoint x="310.19" y="215.5" as="sourcePoint" />
            <mxPoint x="310.19" y="235.5" as="targetPoint" />
          </mxGeometry>
        </mxCell>
        <mxCell id="v7FEq4-VS3XR-d21zDfw-98" value="" style="line;strokeWidth=2;html=1;rounded=0;" parent="1" vertex="1">
          <mxGeometry x="194.25" y="326" width="160" height="10" as="geometry" />
        </mxCell>
        <mxCell id="v7FEq4-VS3XR-d21zDfw-99" style="edgeStyle=none;curved=1;rounded=0;orthogonalLoop=1;jettySize=auto;html=1;entryX=0.709;entryY=0.418;entryDx=0;entryDy=0;entryPerimeter=0;fontSize=12;startSize=8;endSize=8;" parent="1" source="v7FEq4-VS3XR-d21zDfw-69" target="v7FEq4-VS3XR-d21zDfw-98" edge="1">
          <mxGeometry relative="1" as="geometry" />
        </mxCell>
        <mxCell id="v7FEq4-VS3XR-d21zDfw-100" style="edgeStyle=none;curved=1;rounded=0;orthogonalLoop=1;jettySize=auto;html=1;entryX=0.218;entryY=0.345;entryDx=0;entryDy=0;entryPerimeter=0;fontSize=12;startSize=8;endSize=8;" parent="1" source="v7FEq4-VS3XR-d21zDfw-71" target="v7FEq4-VS3XR-d21zDfw-98" edge="1">
          <mxGeometry relative="1" as="geometry" />
        </mxCell>
      </root>
    </mxGraphModel>
  </diagram>
</mxfile>
